<?xml version="1.0" standalone="no"?>
<!DOCTYPE svg PUBLIC "-//W3C//DTD SVG 20010904//EN"
 "http://www.w3.org/TR/2001/REC-SVG-20010904/DTD/svg10.dtd">
<svg version="1.0" xmlns="http://www.w3.org/2000/svg"
 width="875.000000pt" height="875.000000pt" viewBox="0 0 875.000000 875.000000"
 preserveAspectRatio="xMidYMid meet">
<metadata>
Created by potrace 1.14, written by Peter Selinger 2001-2017
</metadata>
<g transform="translate(0.000000,875.000000) scale(0.100000,-0.100000)"
fill="#000000" stroke="none">
<path d="M3445 7688 c-3 -7 -23 -74 -45 -148 -23 -74 -88 -283 -145 -465 -259
-826 -648 -2067 -800 -2555 -92 -294 -260 -834 -375 -1200 -115 -366 -269
-861 -344 -1100 -74 -239 -201 -644 -281 -899 -80 -256 -145 -468 -145 -473 0
-10 1561 -10 1576 0 6 4 53 167 103 362 361 1407 315 1247 366 1256 22 4 482
7 1023 7 807 0 985 -2 992 -13 13 -22 120 -428 271 -1033 l142 -567 822 2
c453 2 826 5 829 8 3 3 -3 33 -13 65 -30 95 -572 1834 -797 2560 -113 363
-281 903 -374 1200 -93 297 -245 788 -339 1090 -94 303 -197 633 -229 735 -33
102 -128 409 -213 683 l-153 497 -933 0 c-738 0 -935 -3 -938 -12z m949 -1318
c20 -74 179 -707 354 -1407 l317 -1271 -35 -6 c-19 -3 -344 -6 -721 -6 l-685
0 68 268 c38 147 114 436 168 642 105 397 111 424 300 1235 66 286 130 556
141 600 20 75 35 103 50 87 4 -4 23 -68 43 -142z"/>
</g>
</svg>
